ply
format ascii 1.0
comment Procedurally generated WorldEditor 3DGS visual regression fixture
element vertex 25
property float x
property float y
property float z
property float f_dc_0
property float f_dc_1
property float f_dc_2
property float opacity
property float scale_0
property float scale_1
property float scale_2
property float rot_0
property float rot_1
property float rot_2
property float rot_3
end_header
-1.2 -1.2 0.00 1.40 -0.90 -0.90 4.0 -0.80 -1.20 -2.00 1 0 0 0
-0.6 -1.2 0.08 1.10 -0.45 -0.90 4.0 -0.75 -1.20 -2.00 1 0 0 0
0.0 -1.2 0.12 0.70 0.10 -0.90 4.0 -0.70 -1.20 -2.00 1 0 0 0
0.6 -1.2 0.08 0.20 0.65 -0.90 4.0 -0.75 -1.20 -2.00 1 0 0 0
1.2 -1.2 0.00 -0.30 1.20 -0.90 4.0 -0.80 -1.20 -2.00 1 0 0 0
-1.2 -0.6 0.08 1.40 -0.90 -0.45 4.0 -0.80 -1.10 -2.00 1 0 0 0
-0.6 -0.6 0.18 1.10 -0.45 -0.45 4.0 -0.75 -1.10 -2.00 1 0 0 0
0.0 -0.6 0.24 0.70 0.10 -0.45 4.0 -0.70 -1.10 -2.00 1 0 0 0
0.6 -0.6 0.18 0.20 0.65 -0.45 4.0 -0.75 -1.10 -2.00 1 0 0 0
1.2 -0.6 0.08 -0.30 1.20 -0.45 4.0 -0.80 -1.10 -2.00 1 0 0 0
-1.2 0.0 0.12 1.40 -0.90 0.10 4.0 -0.80 -1.00 -2.00 1 0 0 0
-0.6 0.0 0.24 1.10 -0.45 0.10 4.0 -0.75 -1.00 -2.00 1 0 0 0
0.0 0.0 0.32 0.70 0.10 0.10 4.5 -0.65 -0.95 -2.00 1 0 0 0
0.6 0.0 0.24 0.20 0.65 0.10 4.0 -0.75 -1.00 -2.00 1 0 0 0
1.2 0.0 0.12 -0.30 1.20 0.10 4.0 -0.80 -1.00 -2.00 1 0 0 0
-1.2 0.6 0.08 1.40 -0.90 0.65 4.0 -0.80 -1.10 -2.00 1 0 0 0
-0.6 0.6 0.18 1.10 -0.45 0.65 4.0 -0.75 -1.10 -2.00 1 0 0 0
0.0 0.6 0.24 0.70 0.10 0.65 4.0 -0.70 -1.10 -2.00 1 0 0 0
0.6 0.6 0.18 0.20 0.65 0.65 4.0 -0.75 -1.10 -2.00 1 0 0 0
1.2 0.6 0.08 -0.30 1.20 0.65 4.0 -0.80 -1.10 -2.00 1 0 0 0
-1.2 1.2 0.00 1.40 -0.90 1.20 4.0 -0.80 -1.20 -2.00 1 0 0 0
-0.6 1.2 0.08 1.10 -0.45 1.20 4.0 -0.75 -1.20 -2.00 1 0 0 0
0.0 1.2 0.12 0.70 0.10 1.20 4.0 -0.70 -1.20 -2.00 1 0 0 0
0.6 1.2 0.08 0.20 0.65 1.20 4.0 -0.75 -1.20 -2.00 1 0 0 0
1.2 1.2 0.00 -0.30 1.20 1.20 4.0 -0.80 -1.20 -2.00 1 0 0 0
